<svg version="1.1" xmlns="http://www.w3.org/2000/svg" xmlns:xlink="http://www.w3.org/1999/xlink" width="191.534" height="125.70513" viewBox="0,0,191.534,125.70513"><defs><linearGradient x1="144.233" y1="180" x2="335.767" y2="180" gradientUnits="userSpaceOnUse" id="color-1"><stop offset="0" stop-color="#ffe100"/><stop offset="1" stop-color="#ff0000"/></linearGradient><linearGradient x1="266.21512" y1="178.22837" x2="305.38735" y2="178.22837" gradientUnits="userSpaceOnUse" id="color-2"><stop offset="0" stop-color="#00daff"/><stop offset="1" stop-color="#0080ff"/></linearGradient><linearGradient x1="203.80583" y1="178.22411" x2="175.78635" y2="178.21181" gradientUnits="userSpaceOnUse" id="color-3"><stop offset="0" stop-color="#00daff"/><stop offset="1" stop-color="#0080ff"/></linearGradient></defs><g transform="translate(-144.233,-117.29604)"><g data-paper-data="{&quot;isPaintingLayer&quot;:true}" fill-rule="nonzero" stroke-linecap="butt" stroke-linejoin="miter" stroke-miterlimit="10" stroke-dasharray="" stroke-dashoffset="0" style="mix-blend-mode: normal"><path d="M144.233,232.2676v-104.5352h191.534v104.5352z" fill="url(#color-1)" stroke="none" stroke-width="0"/><path d="M164.18512,128.01048v-10.47629h30.74565v10.47629z" fill="#000000" stroke="none" stroke-width="0"/><path d="M275.77003,127.77233v-10.47629h30.74564v10.47629z" fill="#000000" stroke="none" stroke-width="0"/><path d="M276.21512,243.00117v-10.4763h30.74564v10.4763z" fill="#000000" stroke="none" stroke-width="0"/><path d="M161.64871,242.53528v-10.4763h30.74564v10.4763z" fill="#000000" stroke="none" stroke-width="0"/><path d="M266.21512,216.148v-75.83926h39.17223v75.83926z" fill="url(#color-2)" stroke="none" stroke-width="0"/><path d="M203.81434,140.30448l-0.01703,75.83926l-28.01948,-0.0123l0.01703,-75.83926z" fill="url(#color-3)" stroke="none" stroke-width="0"/><g fill="none" stroke="#000000" stroke-width="1.5"><path d="M203.98928,217.25642v-76.42341h61.49697v76.42341z"/><path d="M176.52462,229.19758l23.28526,-12.53821h67.46755l33.43525,13.13527z"/><path d="M179.73344,128.51833l23.28526,12.53822h67.46755l33.43525,-13.13527z"/></g></g></g></svg>