<svg version="1.1" xmlns="http://www.w3.org/2000/svg" xmlns:xlink="http://www.w3.org/1999/xlink" width="584" height="426" viewBox="0,0,584,426"><g transform="translate(70.90001,51)"><g data-paper-data="{&quot;isPaintingLayer&quot;:true}" fill-rule="nonzero" stroke-linejoin="miter" stroke-miterlimit="10" stroke-dasharray="" stroke-dashoffset="0" style="mix-blend-mode: normal"><path d="M-70.90001,375v-426h584v426z" fill="#00ff2e" stroke="none" stroke-width="0" stroke-linecap="butt"/><path d="M174.27693,336.84314c-14.58332,19.83798 -138.39017,14.7246 -150.33547,14.7246c-21.97529,0 -12.76276,-43.67383 -12.76276,-93.84384c0,-50.17001 -4.70803,-129.87988 17.26727,-129.87988c3.12181,0 42.13904,8.97056 49.99122,35.38843c6.44252,21.6752 -9.45791,53.83493 -0.64491,69.09869c35.63479,61.71797 104.18304,94.03973 96.48465,104.512z" fill="#00b8ff" stroke="none" stroke-width="0" stroke-linecap="butt"/><path d="M432.60097,177.09716c0,13.79224 -11.42928,24.97306 -25.52802,24.97306c-14.09874,0 -25.52802,-11.18082 -25.52802,-24.97306c0,-13.79224 11.42928,-24.97306 25.52802,-24.97306c14.09874,0 25.52802,11.18082 25.52802,24.97306z" fill="#00ab0d" stroke="none" stroke-width="0" stroke-linecap="butt"/><g><path d="M444.07087,75.26853l-0.86751,-24.00836l25.08158,-0.90629l0.86751,24.00836z" fill="#ffffff" stroke="none" stroke-width="0" stroke-linecap="butt"/><g fill="none" stroke="#000000" stroke-width="5" stroke-linecap="round"><path d="M467.55953,65.48676l-12.49319,-9.76259"/><path d="M454.4583,55.01774l-8.27443,13.52486"/></g></g><g><path d="M443.04047,48.51986l-12.30685,-20.63238l21.55469,-12.857l12.30685,20.63238z" fill="#ffffff" stroke="none" stroke-width="0" stroke-linecap="butt"/><g fill="none" stroke="#000000" stroke-width="5" stroke-linecap="round"><path d="M458.9301,28.64727l-15.64862,-2.55116"/><path d="M442.40862,25.76917l-0.75023,15.83746"/></g></g><g><path d="M443.44387,106.54661l9.31054,-22.1465l23.1365,9.72674l-9.31054,22.1465z" fill="#ffffff" stroke="none" stroke-width="0" stroke-linecap="butt"/><g fill="none" stroke="#000000" stroke-width="5" stroke-linecap="round"><path d="M461.63965,93.4395l7.22845,14.1116"/><path d="M448.18974,101.33319l13.19537,-8.79034"/></g></g><path d="M382.10001,298.43472c0,-13.80712 11.19288,-25 25,-25c0.46062,0 0.91832,0.01246 1.3728,0.03705c3.91985,-2.55336 8.60026,-4.03705 13.6272,-4.03705c13.80712,0 25,11.19288 25,25c0,13.80712 -11.19288,25 -25,25c-0.46062,0 -0.91832,-0.01246 -1.3728,-0.03706c-3.91985,2.55336 -8.60026,4.03706 -13.6272,4.03706c-13.80712,0 -25,-11.19288 -25,-25z" fill="#676767" stroke="none" stroke-width="0.5" stroke-linecap="butt"/><path d="M394.95122,323.06737l-2.45122,0.24512h-4.18544l-0.52979,0.21192l-3.77194,1.08806l-0.8216,0.05963l-0.78498,0.24977l-3.90625,0.39063h-7.2233l-5.24116,0.74874l-1.77138,0.07485l-1.76416,0.17642h-88l-1.54681,-0.15468l-1.55405,-0.03837l-8,-1l-2.40188,-0.54726l-2.40294,-0.5426l-3,-1l-0.67175,-0.30113l-0.70732,-0.20403l-0.80131,-0.32053l-2.82017,-0.28202l-0.08302,-0.02641l-0.08711,-0.00119l-3.82932,-0.86469l-3.86143,-1.28714l-2.48593,-0.35513l-0.48038,0.06005l-0.88959,-0.25576l-0.9125,-0.13036l-3.81175,-0.93913l-1.47697,-0.71337l-1.48623,-0.42729l-0.59576,-0.05958l-0.23355,-0.07431l-1.92359,-0.2815l-16,-4l-0.90469,-0.32476l-0.93761,-0.21172l-5.08915,-1.69638l-3.06855,-0.76714l-1.32669,-0.47625l-0.12171,-0.01909l-0.03346,-0.01275l-1.361,-0.1361l-0.08302,-0.02641l-0.08711,-0.00119l-3.82932,-0.86469l-9,-3l-0.42364,-0.18991l-0.44876,-0.11895l-8,-3l-1.17637,-0.58055l-1.22588,-0.467l-5.54542,-2.77271l-1.33763,-0.33441l-1.32669,-0.47625l-0.12171,-0.01909l-1.11922,-0.42637l-1.12726,-0.40466l-0.10483,-0.06471l-1.31724,-0.50181l-8,-4l-3.31916,-2.09631l-0.06244,-0.06075l-0.07738,-0.04002l-2.23307,-1.82706l-6.26868,-3.4826l-1.71967,-1.19365l-1.75663,-1.13856l-5,-4l-0.98924,-0.96773l-1.07106,-0.87632l-5.74369,-5.74369l-2.57864,-1.93398l-1.30548,-1.19963l-1.37219,-1.1227l-2,-2l-1.23106,-1.50463l-0.18388,-0.16203l-0.51983,-0.69806l-0.55114,-0.67362l-0.1126,-0.21769l-1.16113,-1.55923l-2.33647,-3.89412l-5.2262,-6.96827l-0.35983,-0.59511l-0.44142,-0.53738l-4,-6l-0.72932,-1.37283l-0.83011,-1.31434l-2.10071,-4.20143l-0.41361,-0.47891l-0.30476,-0.95783l-0.18092,-0.36183l-1.39754,-3.66855l-0.28789,-1.83527l-0.56327,-1.77027l-0.09678,-0.96776l-0.01093,-0.03279l-0.86469,-3.82932l-0.00119,-0.08711l-0.02641,-0.08302l-0.00051,-0.00506l-0.14834,-0.38939l-0.28789,-1.83527l-0.56327,-1.77027l-0.39062,-3.90625v-0.40454l-0.15576,-0.993l0.15576,-0.61332v-19.98913l0.19344,-1.93443l-0.01545,-0.2446l0.12603,-0.86118l0.0866,-0.86604l0.07431,-0.23355l0.2815,-1.92359l0.75785,-3.0314l0.83586,-5.01518l0.26157,-0.96455l0.14471,-0.98886l1,-4l1.32637,-3.69488l0.18621,-0.30166l0.09795,-0.3407l0.23391,-0.4403l0.32882,-1.45618l-0.05454,-0.43633l0.47257,-1.64371l0.05291,-0.5291l1.0288,-3.23337l0.93754,-3.26101l0.24947,-0.46958l0.39357,-1.23693v-4.82347l-4.41635,-6.62452l-1.21131,-1.61509l-1.37234,-0.82979l-2.39131,-1.79348l-0.58412,-0.24338l-0.70094,-0.72041l-0.32363,-0.24273l-1.50328,-1.38139l-0.67706,-0.25793l-3.3429,-1.67145l-6.04456,-2.59052l-4.71697,-1.88679l-0.92303,-0.48075l-0.97254,-0.37049l-0.04931,-0.02465l-0.39948,-0.02923l-0.89279,-0.46179l-0.38378,-0.12793l-3.58227,-1.60584l-1.5013,-1.09417l-1.65006,-0.85348l-3.03835,-2.48592l-0.28605,-0.28605l-0.8123,-0.59201l-0.32354,-0.54383l-5.5781,-5.5781l-1.55994,-1.9066l-1.56364,-1.90357l-1.49112,-2.23668l-1.60865,-1.32139l-1.58925,-1.98656l-1.7741,-1.82338l-1.18273,-1.87266l-1.0876,-1.3595l-0.27069,-0.97642l-2.55529,-5.11059l-1.18734,-3.11676l-0.08434,-0.16472l-0.05333,-0.19666l-0.07254,-0.19041l-0.02868,-0.18282l-0.87295,-3.219l-0.93373,-5.60236l-0.92094,-4.60471l-0.24036,-2.45169l-0.24512,-2.45122v-10l0.39063,-3.90625l0.02641,-0.08302l0.00119,-0.08711l0.86469,-3.82932l1.01093,-3.03279l0.09678,-0.96776l0.56327,-1.77027l0.28789,-1.83527l1.39754,-3.66855l0.18092,-0.36183l0.30476,-0.95783l0.41361,-0.47891l0.10071,-0.20143l2.09631,-3.31916l0.06075,-0.06244l0.04002,-0.07738l2.48592,-3.03835l0.24957,-0.24957l0.62685,-0.94027l1.56364,-1.90357l1.09627,-1.33989l0.87697,-1.38854l1.08491,-1.11505l2.63215,-3.3842l1.43119,-0.79202l1.14068,-1.17237l3.95752,-1.64896l1.36122,-0.7533l1.68368,-0.51541l3.47915,-1.44965l1.32743,0.26865l0.94329,-0.18866l0.72314,-0.62453l0.94747,-0.30147c3.45536,-1.80371 7.38485,-2.82353 11.55253,-2.82353h12.98913l0.61332,-0.15576l0.993,0.15576h0.40454l3.90625,0.39063l1.77027,0.56327l1.83527,0.28789l1.99033,0.75822h4.49788l2.45122,0.24512l2.45169,0.24036l2.57258,0.51452h37.44687l1.01425,-0.25356l1.92359,-0.2815l0.23355,-0.07431l0.86604,-0.0866l0.86118,-0.12603l0.2446,0.01545l1.93443,-0.19344h0.34723l2.5764,-0.58177l0.08711,-0.00119l0.08302,-0.02641l3.90625,-0.39062h20.98913l0.61332,-0.15576l0.993,0.15576h0.40454l3.90625,0.39063l1.77027,0.56327l1.83527,0.28789l1.99033,0.75822h3.49788l2.45122,0.24512l2.45169,0.24036l5,1l1.48644,0.45503l0.26343,0.05948h69.33636l0.61332,-0.15576l0.993,0.15576h0.40454l3.90625,0.39063l1.77027,0.56327l1.83527,0.28789l1.54938,0.59024l3.0488,0.50813l0.39038,0.10587l0.40255,0.03947l7.57258,1.51452h21.52451l2.05208,0.20521l2.05789,0.13494l3.95909,0.65985h1.45545l2.57258,-0.51452l0.69798,-0.06843l0.29923,-0.13414l1.31448,-0.43816l0.6123,-0.30615l0.47891,-0.41361l0.95783,-0.30476l0.36183,-0.18092l3.66855,-1.39754l1.83527,-0.28789l1.77027,-0.56327l1.361,-0.1361l0.03346,-0.01275l1.83527,-0.28789l1.77027,-0.56327l3.90625,-0.39062h0.40454l0.993,-0.15576l0.61332,0.15576h23.98913l3.90625,0.39063l0.08302,0.02641l0.08711,0.00119l3.82932,0.86469l1.69945,0.56648l0.88871,-0.17986l5.98941,2.49559l3.01673,0.95987l0.6647,0.57406l0.81072,0.3378l2.20766,2.26898l0.43338,0.37428l0.83667,0.22613l1.68712,1.95351l1.95351,1.68712l0.22613,0.83667l0.37428,0.43338l2.26898,2.20766l0.3378,0.81072l0.57406,0.6647l0.95987,3.01673l0.84713,2.03311l1.48159,1.81083l0.85348,1.65006l1.09417,1.5013l1.60584,3.58227l0.12793,0.38378l0.46179,0.89279l0.03767,0.51482l0.53053,0.6143l0.96683,3.0386l1.46497,2.83227l0.1184,1.61814l0.80116,2.10304l0.13905,0.25126l0.17725,0.57902l0.21557,0.56588l0.0445,0.2837l0.71179,2.32519l0.67675,3.38373l0.16942,0.33883l1.39754,3.66855l0.28789,1.83527l0.56327,1.77027l0.39063,3.90625v0.40454l0.15576,0.993l-0.15576,0.61332v10.97827l0.15576,0.61332l-0.15576,0.993v0.40454l-0.39062,3.90625l-0.56327,1.77027l-0.28789,1.83527l-0.14834,0.38939l-0.00051,0.00506l-0.13421,0.4218l-0.16837,2.30108l-1.46497,2.83227l-0.96683,3.0386l-1.50805,1.74617l-0.20336,0.39315l-2.48592,3.03835l-0.24957,0.24957l-0.62685,0.94027l-1.56364,1.90357l-1.55994,1.9066l-4,4l-1.50463,1.23106l-0.16203,0.18388l-0.69806,0.51983l-0.67362,0.55114l-0.21769,0.1126l-1.55923,1.16113l-5,3l-0.86936,0.41007l-0.77837,0.4916l-3.761,2.82075l-0.02142,0.03042l-0.10819,0.06678l-2.32406,1.74305l-3.35937,2.03125l-0.99011,0.34517l-0.89225,0.55077l-3.69488,1.32637l-2.35396,0.58849l-3.42466,1.36986l-1.29351,0.37313l-0.0924,0.04731l-1.19569,0.32425l-1.19034,0.34337l-0.10354,0.00751l-1.29932,0.35236l-4.60337,0.76723l-5.63858,1.61102l-0.99668,0.17996l-0.96844,0.29646l-10,2l-1.08043,0.10592l-1.06169,0.22665l-9,1l-1.38379,0.01521l-1.377,0.1377h-0.49788l-1.99033,0.75822l-1.83527,0.28789l-1.77027,0.56327l-3.77685,0.37768l-1.06601,0.2665l-1.92359,0.2815l-0.23355,0.07431l-0.86604,0.0866l-0.86118,0.12603l-0.2446,-0.01545l-1.93443,0.19344h-1.93094l-3.56145,0.59358l-4.60471,0.92094l-2.45169,0.24036l-2.45122,0.24512h-8.34723l-2.5764,0.58177l-0.08711,0.00119l-0.08302,0.02641l-3.90625,0.39063h-1.92236l-1.01425,0.25356l-1.92359,0.2815l-0.23355,0.07431l-0.86604,0.0866l-0.86118,0.12603l-0.2446,-0.01545l-1.93443,0.19344h-8.92236l-1.01425,0.25356l-1.92359,0.2815l-0.23355,0.07431l-0.86604,0.0866l-0.86118,0.12603l-0.2446,-0.01545l-1.93443,0.19344h-18.18967l-0.44965,1.18034l-0.18092,0.36183l-0.30476,0.95783l-0.41361,0.47891l-0.30615,0.6123l-0.43816,1.31448l-0.71708,1.59965v6.42527l0.80126,1.20189l0.72932,1.37283l0.83011,1.31434l1.30394,2.60787l0.62776,0.94164l0.4787,0.39321l1.9066,1.55994l2.20272,2.20272l0.29995,0.11426l0.33883,0.16942l0.95631,0.19126h0.52451l1.40259,0.14026l0.1227,-0.011l1.18922,0.14219l1.19174,0.11917l0.1174,0.03735l1.39962,0.16735l9,2l0.86568,0.28528l0.89476,0.17374l9.0373,2.71119l13.01723,2.78941l0.80144,0.2574l0.82836,0.14957l7,2l0.5063,0.20103l0.53137,0.11999l7.52343,2.50781l3.25876,0.65175l9.5154,1.73007l11.71414,0.90109l1.48464,0.2647l1.50085,0.14714l5,1l1.48644,0.45503l1.51635,0.3424l5.08915,1.69638l3.06855,0.76714l0.70635,0.25356h2.23026l2.45122,0.24512l2.45169,0.24036l5,1l0.96844,0.29646l0.99668,0.17996l6.59948,1.88556l3.59589,0.89897l1.87973,0.67477l1.90486,0.60016l7,3l0.64442,0.35588l0.68793,0.26207l4,2l1.07017,0.6759l0.07257,0.02787l1.08412,0.70267l1.0923,0.68987l0.05572,0.05421l1.06215,0.68843l3.22006,2.57605l2.66206,1.6813l0.06244,0.06075l0.07738,0.04002l3.03835,2.48592l3,3l2.48592,3.03835l0.04002,0.07738l0.06075,0.06244l2.07463,3.28483l1.661,2.21467l0.66718,1.10342l0.77014,1.03419l3,5l0.41007,0.86936l0.51328,0.8127l0.1119,0.2238l0.52617,0.40925l0.82813,1.49644l0.33672,0.41154l1.55887,3.01381l1.64294,2.96882l0.15565,0.50845l0.78575,1.51912l0.10074,1.37674l0.10698,0.34948l0.80049,4.00246l0.21556,0.40577l0.83011,1.31434l0.10071,0.20143l0.41361,0.47891l0.30476,0.95783l0.18092,0.36183l1.39754,3.66855l0.28789,1.83527l0.56327,1.77027l0.39063,3.90625v0.40454l0.15576,0.993l-0.15576,0.61332v1.97827l0.15576,0.61332l-0.15576,0.993v0.40454l-0.39062,3.90625l-0.56327,1.77027l-0.15078,0.96125c-1.53558,-0.96041 -3.35062,-1.51552 -5.29532,-1.51552h-4v0.83209c-0.086,0.03758 -0.17136,0.07632 -0.25608,0.11622c-1.04722,-0.24208 -2.11578,-0.36545 -3.21339,-0.32716c-0.66849,0.02332 -1.29381,0.16553 -1.8859,0.39929c-0.21314,-0.01356 -0.42808,-0.02044 -0.64464,-0.02044c-1.18764,0 -2.32691,0.20704 -3.38372,0.58698l-2.77856,0.92618l0.0344,0.10318c-0.16276,0.01733 -0.32548,0.03739 -0.48816,0.06033c-4.01285,0.56583 -7.5097,3.09969 -11.04533,5.0802c-0.99626,0.55807 -1.72656,1.4814 -2.52392,2.31263c-2.70551,0.3195 -5.08024,1.71907 -6.68111,3.75567l-3.72013,4.65016c-2.09229,1.83292 -3.41347,4.5245 -3.41347,7.52465c0,0.50667 0.03768,1.00454 0.11039,1.49096c-0.38441,1.694 -0.59605,3.34556 -0.45628,4.96494zM87.80944,73.41148l2.49182,3.03352l2.62685,3.94027l1.45229,1.45229l0.29995,0.11426l1.06992,0.53496l4.03451,1.6138l0.27138,0.14134l0.29184,0.09195l7,3l0.64442,0.35588l0.68793,0.26207l3.06992,1.53496l4.03451,1.6138l2.82566,1.4717l1.865,0.77708l2.73088,2.80674l1.67076,1.37489l0.89029,0.24681l3.6899,2.95192l3.81878,2.78318l1.00676,1.69222l1.01847,1.23988l1.61509,2.42263l2.58365,3.44487l0.35983,0.59511l0.44142,0.53738l6,9l0.72932,1.37283l0.83011,1.31434l2,4l0.63116,1.65681l0.72524,1.61784l1,3l0.86469,3.82932l0.00119,0.08711l0.02641,0.08302l0.39063,3.90625v11.98913l0.15576,0.61332l-0.15576,0.993v0.40454l-0.39062,3.90625l-0.56327,1.77027l-0.02414,0.15387l0.11288,0.90305l-0.47257,1.64371l-0.05291,0.5291l-1.0288,3.23337l-0.93754,3.26101l-0.24947,0.46958l-0.35296,1.10929l0.09424,0.75393l-0.47257,1.64371l-0.05291,0.5291l-1.0288,3.23337l-0.93754,3.26101l-0.24947,0.46958l-0.51857,1.62979l-0.55367,0.64109l-0.66148,3.96888l-0.26157,0.96455l-0.14471,0.98886l-0.25356,1.01425v14.9519l0.04611,0.29394l0.56327,1.77027l0.09678,0.96776l0.01093,0.03279l0.59218,2.62253l0.35535,0.7107l2.75173,4.12759l5.58365,7.44487l0.66718,1.10342l0.77014,1.03419l1.02588,1.70979l1.5368,1.1526l1.30548,1.19963l1.37219,1.1227l6.02092,6.02092l2.27861,1.82289l7.16387,3.97993l2.25097,1.56244l0.24728,0.1279l0.35254,0.28844l0.37419,0.25973l0.19091,0.20262l0.75563,0.61824l2.41317,1.20659l1.33763,0.33441l1.32669,0.47625l0.12171,0.01909l1.11922,0.42637l1.12726,0.40466l0.10483,0.06471l1.31724,0.50181l6.82636,3.41318l6.33804,2.37677l5.16517,1.72172l2.39633,0.23963l1.77027,0.56327l1.83527,0.28789l2.80071,1.06694l1.75089,0.43772l0.90469,0.32476l0.93761,0.21172l5.08915,1.69638l12.0828,3.0207h0.92236l0.36368,0.03637l1.36976,-0.17122l1.64371,0.47257l0.5291,0.05291l3.23337,1.0288l3.26101,0.93754l0.46958,0.24947l1.50618,0.47924l1.15914,0.16559l2.18005,0.53711l2.19011,0.49454l2.17565,0.72522l3.8249,0.38249l0.78498,0.24977l0.8216,0.05963l3.77194,1.08806l4.28348,1.71339l3.98819,0.49852h84.66686l5.24116,-0.74874l1.77138,-0.07485l1.76416,-0.17642h4.18544l0.52979,-0.21192l3.77194,-1.08806l0.8216,-0.05963l0.78498,-0.24977l3.90625,-0.39062h6.52451l0.32186,-0.06437l1.80883,-0.72353l-0.5865,-1.173l-1.8425,-3.07083l-2.2262,-2.96827l-0.41101,-0.67974l-0.0885,-0.05589l-0.05572,-0.05421l-1.06215,-0.68843l-2.93186,-2.34549l-0.974,-0.487l-4.48352,-1.92151l-2.05663,-0.51416l-0.39336,-0.1412l-0.41128,-0.07426l-6.02708,-1.72202l-1.58038,-0.31608h-2.51365l-0.61332,0.15576l-0.993,-0.15576h-0.40454l-3.90625,-0.39062l-1.77027,-0.56327l-1.83527,-0.28789l-2.80071,-1.06694l-1.75089,-0.43772l-0.90469,-0.32476l-0.93761,-0.21172l-4.52343,-1.50781l-1.99347,-0.39869l-11.49482,-0.88422l-1.26942,-0.22633l-1.2853,-0.10328l-11,-2l-0.21164,-0.06075l-0.21913,-0.02148l-5,-1l-1.48644,-0.45503l-1.51635,-0.3424l-8.48465,-2.82822l-5.66962,-1.61989l-13.17826,-2.82391l-0.95786,-0.30763l-0.98761,-0.19177l-9.12814,-2.73844l-5.43247,-1.20722h-0.25569l-2.45122,-0.24512l-2.45169,-0.24036l-5,-1l-1.48644,-0.45503l-1.51635,-0.3424l-3,-1l-1.61784,-0.72524l-1.65681,-0.63116l-0.41088,-0.20544l-1.31448,-0.43816l-1.61784,-0.72524l-1.65681,-0.63116l-2,-1l-1.08381,-0.68451l-1.71128,-0.71303l-3.446,-3.54172l-3.54172,-3.446l-0.1601,-0.38423l-2.77779,-2.28175l-0.62596,-0.78245l-0.78245,-0.62596l-2.49182,-3.03352l-4,-6l-0.72932,-1.37283l-0.83011,-1.31434l-1.30394,-2.60787l-3.13664,-4.70496l-1.14084,-2.14747l-0.16914,-0.23207l-0.2477,-0.55257l-0.28409,-0.53477l-0.07935,-0.27599l-0.9947,-2.21895l-1,-3l-0.86469,-3.82932l-0.00119,-0.08711l-0.02641,-0.08302l-0.39062,-3.90625v-19l0.03637,-0.36368l-0.17122,-1.36976l0.47257,-1.64371l0.05291,-0.5291l1.0288,-3.23337l0.93754,-3.26101l0.24947,-0.46958l0.51857,-1.62979l0.90227,-1.04473l0.17147,-0.32277l0.2047,-0.30704l0.60472,-1.34898l0.63116,-1.65681l0.05141,-0.10283l0.59218,-2.62253l0.01093,-0.03279l0.09678,-0.96776l0.02641,-0.08302l0.00119,-0.08711l0.86469,-3.82932l1,-3l0.72524,-1.61784l0.63116,-1.65681l1,-2l0.68451,-1.08381l0.71303,-1.71128l3.54172,-3.446l3.446,-3.54172l1.71128,-0.71303l1.08381,-0.68451l0.20143,-0.10071l0.47891,-0.41361l0.95783,-0.30476l0.36183,-0.18092l3.66855,-1.39754l1.03374,-0.16216l0.98419,-0.41008l0.43459,0.08795l1.15302,-0.36687l0.00506,-0.00051l0.38939,-0.14834l1.83527,-0.28789l1.77027,-0.56327l2.73461,-0.27346l3.09527,-0.69893l0.08711,-0.00119l0.08302,-0.02641l3.90625,-0.39062h22.92236l1.01425,-0.25356l1.92359,-0.2815l0.23355,-0.07431l0.86604,-0.0866l0.86118,-0.12603l0.2446,0.01545l1.93443,-0.19344h8.92236l1.01425,-0.25356l1.92359,-0.2815l0.23355,-0.07431l0.86604,-0.0866l0.86118,-0.12603l0.2446,0.01545l1.93443,-0.19344h1.34723l2.5764,-0.58177l0.08711,-0.00119l0.08302,-0.02641l3.90625,-0.39062h9.52451l2.57258,-0.51452l0.40255,-0.03947l0.39038,-0.10587l6,-1l2.05789,-0.13494l2.05208,-0.20521h0.92236l1.01425,-0.25356l1.92359,-0.2815l0.23355,-0.07431l0.51354,-0.05135l2.88092,-1.09749l1.83527,-0.28789l1.77027,-0.56327l3.90625,-0.39062h0.40454l0.993,-0.15576l0.61332,0.15576h2.60451l6.54557,-0.72729l7.94395,-1.58879l6.02708,-1.72202l1.39243,-0.25141l1.36562,-0.37034l3.33435,-0.55572l2.49086,-0.99634l1.62731,-0.46942l0.44607,-0.16013l4.21138,-3.15854l1.92133,-1.16173l1.89833,-1.19895l1.14124,-0.57062l1.0391,-0.62346v-3.3883l-0.71708,-2.15125l-0.3424,-1.51635l-0.45503,-1.48644l-0.2565,-1.2825l-0.10398,-0.1204l-0.30476,-0.95783l-0.18092,-0.36183l-0.6318,-1.65847l-0.88252,-1.02187l-0.40443,-1.27108c0.56502,-1.25289 0.87946,-2.64308 0.87946,-4.10672c0,-4.4984 -2.97024,-8.30305 -7.05648,-9.55975l-2.78124,-0.92708l-0.16228,0.48683h-0.30462c-0.35519,-0.30054 -0.71928,-0.5913 -1.09356,-0.87087c-1.26819,-0.94728 -6.34352,0.21573 -8.37999,-0.0542c-4.22976,-0.56065 -8.4325,-2.3011 -12.62001,-2.9458c-11.23332,-1.72947 -24.27112,1.82529 -35.18703,2.88801c-11.68428,1.13752 -23.02778,-2.11228 -34.8018,-0.92048c-2.87453,0.29097 -5.57346,1.52541 -8.3602,2.28811l0.74721,-0.38476c0,0 -9.91837,0 -9.9995,9.87781h-50.60055l-3.90625,-0.39062l-0.08302,-0.02641l-0.08711,-0.00119l-3.82932,-0.86469l-1.52343,-0.50781l-1.04637,-0.20927h-5.52451l-3.90625,-0.39062l-0.08302,-0.02641l-0.08711,-0.00119l-3.82932,-0.86469l-2.15125,-0.71708h-14.29028l-2.5764,0.58177l-0.08711,0.00119l-0.08302,0.02641l-3.90625,0.39063h-0.92236l-1.01425,0.25356l-1.92359,0.2815l-0.23355,0.07431l-0.86604,0.0866l-0.86118,0.12603l-0.2446,-0.01545l-1.93443,0.19344h-43l-2.45122,-0.24512l-2.45169,-0.24036l-2.57258,-0.51452h-6.52451l-3.90625,-0.39062l-0.08302,-0.02641l-0.08711,-0.00119l-3.82932,-0.86469l-1.16414,-0.38805l-4.02392,1.28034l-3.88661,0.38866l-0.01964,0.05891v3.46757l0.51452,2.57258l0.03947,0.40255l0.10587,0.39038l0.13255,0.79532z" fill="#676767" stroke="none" stroke-width="0.5" stroke-linecap="butt"/><g stroke="none" stroke-linecap="butt"><path d="M309.55091,331.53472v-57.66464h25.94909v57.66464z" fill="#00ffff" stroke-width="0"/><text transform="translate(319.62388,279.32207) rotate(90.80388) scale(0.22164,0.22164)" font-size="40" xml:space="preserve" fill="#ffffff" fill-rule="nonzero" stroke="none" stroke-width="1" stroke-linecap="butt" stroke-linejoin="miter" stroke-miterlimit="10" stroke-dasharray="" stroke-dashoffset="0" font-family="Sans Serif" font-weight="normal" text-anchor="start" style="mix-blend-mode: normal"><tspan x="0" dy="0">Checkpoint</tspan></text></g><path d="M126.5,15.3125l-1,48" fill="none" stroke="#eeff00" stroke-width="9" stroke-linecap="round"/><path d="M208.29445,15.83914c0.73324,-0.40019 1.68076,-0.76852 2.78849,-1.10618c3.19286,-1.29927 6.71071,-2.01882 10.40595,-2.01882c0.13101,0 0.26181,0.00091 0.39237,0.00271c5.21807,-0.62293 10.66967,-0.94265 14.38541,-1.00271c19.6512,-0.31763 38.27606,0.84931 58.05556,1c5.41191,0.04123 10.77842,2.9937 15.91528,3c5.60231,0.00686 11.20571,-0.10453 16.80694,0c18.0592,0.33705 39.05556,3.38723 39.05556,26c0,6.18991 -1.6584,11.02077 -4.59966,14.76729c-2.60721,-0.69917 -5.20578,-1.51841 -7.79852,-1.91759c-11.23332,-1.72947 -24.27112,1.82529 -35.18703,2.88801c-11.68428,1.13752 -23.02778,-2.11228 -34.8018,-0.92048c-2.87453,0.29097 -5.57346,1.52541 -8.3602,2.28811l0.74721,-0.38476c0,0 -5.79796,0 -8.56424,4.41482c-1.86584,0.01242 -3.70911,0.02036 -5.51613,0.02036c-9.0676,0 -9.90318,-1.57014 -21.89725,-1.15577c-10.55687,0.36472 -21.68605,3.4103 -31.82793,-2.125c-1.03328,-0.56395 -1.96266,-1.26646 -2.85007,-2.02501c-2.7139,-1.97175 -5.01177,-4.43176 -6.74734,-7.24143c-2.28652,-3.70159 -3.59704,-8.01009 -3.59704,-12.60856c0,-4.98998 1.54317,-9.6385 4.20207,-13.54061c1.63158,-3.10186 4.16094,-5.69746 8.99238,-8.33439z" fill="#676767" stroke="none" stroke-width="0.5" stroke-linecap="butt"/><path d="M73.91683,14.03961c0,0 275.61924,-7.83455 340.88315,12.57191c18.08344,5.65426 41.18815,64.22329 7.27047,100.23551c-13.57612,14.41449 -145.01759,29.87143 -159.1371,35.87754c-7.17675,3.05283 -13.18204,15.67968 2.57014,21.44385c29.87842,10.93336 99.97185,22.32464 136.76992,34.09548c30.743,9.83397 58.80488,68.21967 37.26276,93.17365c-10.23156,11.85204 -151.93081,27.77981 -240.93522,0.23872c-38.15667,-11.80701 -85.56349,-46.12426 -100.43824,-83.53563c-5.13214,-12.90781 0.39679,-48.28369 2.73954,-78.26575c1.03657,-13.26588 -69.29068,-42.4517 -63.53922,-82.82318c6.74217,-47.32562 36.55381,-53.0121 36.55381,-53.0121" fill="none" stroke="#660000" stroke-width="8.5" stroke-linecap="round"/><path d="M264.52532,31.80355c2.33631,-2.55513 6.89129,-6.0679 10.80906,-6.83277c4.94731,-0.96587 10.58111,-1.73116 16.61371,-2.32821c26.38294,-2.61113 60.39356,-2.0043 77.96694,-0.8833c16.77859,1.0703 43.41617,4.4336 44.63095,21.50924c0.65969,9.27295 -4.74974,17.72164 -14.64504,22.87328c-11.78833,6.13719 -23.71449,-0.27027 -35.66399,-0.31909c-17.91695,-0.07321 -35.83533,-0.14392 -53.75158,0c-11.64999,0.09358 -27.22751,4.1878 -37.18723,-2.52936c-1.6246,-0.80282 -3.13739,-1.73116 -4.51601,-2.76758c-5.3521,-4.02358 -8.68212,-9.67593 -8.68212,-15.93565c0,-2.77488 0.65437,-5.43041 1.84918,-7.87761c0.50376,-1.7675 1.24096,-3.44872 2.57613,-4.90895z" fill="#676767" stroke="none" stroke-width="0.5" stroke-linecap="butt"/><path d="M88.91764,65.41094c0,0 276.09271,-8.91434 295.87751,7.20713c52.40182,42.69919 -106.78983,14.91987 -158.952,50.69562c-18.98006,13.0176 -30.38788,65.27829 6.03198,93.87797c11.9207,9.36105 161.81684,45.27319 160.77479,50.36909c-1.85264,9.05986 -59.63296,11.97312 -114.42946,5.34629c-24.05608,-2.90922 -97.06499,-15.73902 -122.57635,-47.08729c-4.34958,-5.34475 -10.71507,-12.17055 -10.64037,-23.37234c0.11091,-16.63216 8.39679,-40.50234 9.80399,-63.99345c1.5539,-25.94008 -32.41814,-41.30353 -51.87983,-53.45827c-13.01346,-8.12752 -14.01025,-17.58474 -14.01025,-17.58474" fill="none" stroke="#660000" stroke-width="8.5" stroke-linecap="round"/><path d="M207.40278,199.46555c0,13.79224 -11.42928,24.97306 -25.52802,24.97306c-14.09874,0 -25.52802,-11.18082 -25.52802,-24.97306c0,-13.79224 11.42928,-24.97306 25.52802,-24.97306c14.09874,0 25.52802,11.18082 25.52802,24.97306z" fill="#00ab0d" stroke="none" stroke-width="0" stroke-linecap="butt"/></g></g></svg>